<?xml version="1.0" encoding="utf-8"?>
<!-- Generator: Adobe Illustrator 22.1.0, SVG Export Plug-In . SVG Version: 6.00 Build 0)  -->
<svg version="1.1" id="Layer_2_1_" xmlns="http://www.w3.org/2000/svg" xmlns:xlink="http://www.w3.org/1999/xlink" x="0px" y="0px"
	 viewBox="0 0 81 81" style="enable-background:new 0 0 81 81;" xml:space="preserve">
<style type="text/css">
	.st0{fill:#FFFFFF;}
	.st1{fill:none;}
	.st2{fill:#CFCECF;}
</style>
<polygon class="st0" points="31,23 31,17.5 39.6,18.6 37.8,10.8 43.2,10.8 41.4,18.6 50,17.5 50,23 41.3,20.4 44.7,33.2 40.5,39.2 
	36.3,33.2 39.7,20.4 "/>
<path class="st0" d="M19,69.8v-5.9c13.3-3.1,29.6-3.1,42.9,0v5.9H19z"/>
<path class="st0" d="M62.4,61.2L62.4,61.2c-13.7-3-30.1-3-43.6,0.1l-0.1-0.1c-7.2-6-10.5-12.1-10.5-19.8C8.2,33,14.9,28,21.4,28
	c5.8,0,9.8,1.9,12.7,6l6.5,9.4l6.5-9.4c2.9-4.1,6.9-6,12.7-6C66.3,28,73,33,73,41.4C72.9,49.2,69.6,55.3,62.4,61.2z"/>
<rect class="st1" width="81" height="81"/>
<g>
	<path class="st2" d="M19,61.9l-0.4-0.3c7-1.6,14.7-2.4,21.9-2.4V42.7l-6.2-8.2c0-0.1-0.1-0.1-0.2-0.2c-0.6,5.2-2.8,11.5-5.7,15.9
		C25,55.5,19.4,59.9,18,61c0.1,0.1,0.2,1,0.3,1.1L19,61.9C19,62,19,61.9,19,61.9z"/>
	<path class="st2" d="M46.6,59.8L63,62.5v-0.7l0.5-0.4c7.4-5.9,10.7-12,10.7-19.6c0-5.4-2.9-9.4-6.7-11.5
		C70.5,42.9,57.9,58.6,46.6,59.8z"/>
	<polygon class="st2" points="53.1,69.8 61.8,69.8 61.8,62.4 53.1,60.6 	"/>
	<polygon class="st2" points="50.5,16.6 48.2,20.5 41.1,20.3 49.5,23.6 50.5,23.6 	"/>
	<polygon class="st2" points="43.1,11.3 40.5,13 40.5,19.2 42.1,18.2 	"/>
	<polygon class="st2" points="41.8,21.5 41.8,33.2 40.5,40.2 45,34 	"/>
	<polygon class="st2" points="39.7,20.4 30.5,20.6 30.5,24.2 	"/>
</g>
<polygon points="36.4,51.2 40.5,57.2 44.6,51.2 40.5,45.2 "/>
<path d="M59.7,25.6c-5.8,0-10.3,1.8-13.5,5.5l-2.1-7.8l7.8,2.4V15.2l-8,1l1.7-7.5H35.3l1.7,7.5l-8-1v10.4l7.8-2.4L34.7,31
	c-3.2-3.7-7.7-5.5-13.5-5.5c-7.7,0-15.7,5.9-15.7,15.9c0,8.4,3.4,15,10.9,21.3v9.4h47.9v-9.4c7.5-6.4,10.9-13,10.9-21.3
	C75.4,31.5,67.4,25.6,59.7,25.6z M31,23v-5.5l8.6,1.1l-1.8-7.8h5.4l-1.8,7.8l8.6-1.1V23l-8.7-2.6l3.4,12.8l-4.2,6l-4.2-6l3.4-12.8
	L31,23z M19,69.8v-5.9c13.3-3.1,29.6-3.1,42.9,0v5.9H19z M62.4,61.2L62.4,61.2c-13.7-3-30.1-3-43.6,0.1l-0.1-0.1
	c-7.2-6-10.5-12.1-10.5-19.8C8.2,33,14.9,28,21.4,28c5.8,0,9.8,1.9,12.7,6l6.5,9.4l6.5-9.4c2.9-4.1,6.9-6,12.7-6
	C66.3,28,73,33,73,41.4C72.9,49.2,69.6,55.3,62.4,61.2z"/>
</svg>
