<?xml version="1.0" encoding="utf-8"?>
<!-- Generator: Adobe Illustrator 22.1.0, SVG Export Plug-In . SVG Version: 6.00 Build 0)  -->
<svg version="1.1" id="Layer_3" xmlns="http://www.w3.org/2000/svg" xmlns:xlink="http://www.w3.org/1999/xlink" x="0px" y="0px"
	 viewBox="0 0 81 81" style="enable-background:new 0 0 81 81;" xml:space="preserve">
<style type="text/css">
	.st0{fill:none;}
	.st1{fill:#FFFFFF;}
	.st2{fill:#CFCECF;}
</style>
<rect class="st0" width="81" height="81"/>
<path class="st1" d="M49,45.1c-3.3,1.6-7.2,1.9-11,0.7l-0.4-0.1l-0.3,0.2c-0.1,0.1-11.9,9.9-15.7,23.7l-0.3,0.9H66L64.2,65v-0.1
	c0-0.1-0.1-14.8-0.1-23.8c0-16.9-7.6-25.6-15-28.6c-3.7-1.4-9.2-2.5-12.4-2.5h-1.2l3.2,6.2L14.3,36.5l1,10.8l5,1.4l5.1-3.9H27
	l-4.3,4.5l1.1,0.4l6.7,1.9l5.5-6.8c3.5,1.5,7.7,1.3,12.5-0.6c2.8-1.2,5.1-3.6,6.5-5.6C54.1,41.4,52,43.7,49,45.1z"/>
<path d="M39.6,22.7l-7.7,6.2c-0.5,0.5-0.6,1.3-0.2,1.9c0.3,0.4,0.7,0.6,1.1,0.6c0.2,0,0.4,0,0.6-0.1l9.1-3.6L39.6,22.7z"/>
<path class="st2" d="M36,70.7L57.4,71h8.5c0,0-2.1-5.2-2.1-7.2c0-8.2,0-29.9,0-35.2c0,8.4-2.9,20.8-9.7,27.6
	C39.9,56.2,36,70.7,36,70.7z"/>
<path class="st2" d="M35.6,47.3l1.3-1.8l8.8,0.8l4.8-2.2l3.9-3.4l2.4-6.5c-0.8-1.3-2.5-2.8-4.7-3.5c-1.5,7.8-6.8,11.1-15.6,11.1
	l-2.7-3.2l-5,5.4L23,48.8l7,4.5L35.6,47.3z"/>
<path d="M19.3,72.2h49l-2.5-7.5c0-1.9,0-15.1,0-23.6c0-6.8-0.9-23.9-16-30.1c-5.8-2.4-14.6-2.6-15-2.5L33,8.6l3.7,7.2l-24.2,20
	l1.3,12.8l14.5,4.2c-3.5,4.5-7.2,10.7-8.8,18L19.3,72.2z M37.8,46.8c1.5,0.5,3,0.8,4.7,0.8c2.4,0,4.7-0.8,6.8-1.8
	c4.1-2,6.8-5.6,7.3-10.1l0.2-1.4l-0.6,1.2c0,0.1-3,5.8-7.9,8c-3.9,1.6-8.4,2.4-12.4,0.4l-6.5,6.4L24.1,49l4.7-4.9h-3.7l-5,3.8
	L16,46.7l-0.9-9.9l24.6-20.4l-2.9-5.6c2.9,0,8.3,0.9,12.1,2.4c5.7,2.3,14.5,9.6,14.5,27.9c0,9.1,0.1,23.8,0.1,23.8v0.2l1.5,4.7H22.3
	C25.9,56.6,37,47.4,37.8,46.8z"/>
</svg>
